<svg width="377" height="72" viewBox="0 0 377 72" fill="none" xmlns="http://www.w3.org/2000/svg">
<path d="M23.1998 2.52242C30.9305 -0.589495 39.7094 -0.818794 47.6038 1.76901C51.3709 3.01378 54.8759 4.88093 58.0861 7.23944C55.5638 9.59795 53.3691 12.2513 51.4037 15.1011C47.3418 12.0547 42.2972 10.3514 37.1871 10.2203C31.6512 10.0238 26.0497 11.7272 21.562 14.9701C16.6484 18.5079 13.0779 23.8145 11.6366 29.6453C10.228 35.3122 10.7194 41.4706 13.1434 46.7772C15.5019 52.0183 19.6948 56.4078 24.8377 59.0283C29.3254 61.3213 34.501 62.2058 39.5128 61.6161C45.6384 60.8955 51.4692 57.8491 55.5638 53.2631C60.7067 47.5961 63.1962 39.5051 61.7876 31.971C61.6566 31.0211 61.2963 30.0711 61.5911 29.1539C62.8359 25.2558 65.0633 21.6853 68.0115 18.8354C72.1389 26.5333 73.3836 35.7708 71.3527 44.2877C69.1252 53.9837 62.6066 62.5988 53.926 67.4141C47.8659 70.8536 40.7904 72.426 33.8786 71.9346C26.7704 71.4432 19.8586 68.7572 14.2572 64.335C8.03332 59.4214 3.44733 52.4442 1.54742 44.7463C-0.581787 36.2949 0.531953 27.0902 4.56107 19.3595C8.52467 11.7927 15.2399 5.69986 23.1998 2.52242ZM61.6239 7.63252C68.3718 2.29313 77.0852 -0.458467 85.6348 0.0656461C94.5119 0.491488 103.193 4.45509 109.351 10.8427C115.902 17.5252 119.637 26.8281 119.538 36.1967C119.604 47.6289 113.74 58.8973 104.372 65.4159C95.0361 72.1311 82.3918 73.8018 71.5492 69.9692C68.077 68.7572 64.8341 66.9555 61.9514 64.7281C64.4737 62.4023 66.7995 59.8473 68.6011 56.8991C72.6957 59.88 77.6421 61.6489 82.6866 61.7799C88.4519 62.0092 94.3154 60.2076 98.9341 56.7681C103.553 53.3614 107.025 48.3495 108.499 42.7808C110.137 36.688 109.449 30.0383 106.632 24.4041C104.175 19.4906 100.081 15.3959 95.1671 12.9392C90.6466 10.6462 85.4055 9.76173 80.3609 10.4169C74.8577 11.1048 69.6493 13.7253 65.7185 17.6234C61.4273 21.8491 58.7085 27.5816 58.1516 33.5761C57.8568 36.426 58.1516 39.3086 58.5447 42.1257C57.7913 46.4496 55.1707 50.2822 51.9605 53.1976C48.4228 46.6462 46.9815 39.0138 47.9314 31.6107C49.1434 22.2094 54.1553 13.3978 61.6239 7.63252ZM129.169 2.78448C133.722 2.78448 138.275 2.78448 142.861 2.78448C142.894 12.7426 142.796 22.7335 142.894 32.6917C143.615 32.1348 144.172 31.4141 144.729 30.6935C152.394 21.3905 160.059 12.0875 167.691 2.78448C172.769 2.75172 177.846 2.78448 182.956 2.78448C174.898 12.4151 166.872 22.0784 158.814 31.709C167.396 43.8291 176.044 55.9164 184.627 68.0365C179.189 68.0365 173.718 68.0365 168.281 68.0365C161.828 58.9301 155.375 49.8564 148.921 40.7826C146.89 43.2067 144.892 45.6635 142.861 48.0547C142.829 54.7044 142.861 61.3868 142.861 68.0365C138.308 68.0365 133.755 68.0365 129.202 68.0365C129.136 46.3186 129.169 24.5352 129.169 2.78448ZM188.459 2.78448C192.259 2.78448 196.092 2.78448 199.891 2.78448C207.655 13.6271 215.418 24.4369 223.182 35.2795C225.671 38.6862 228.03 42.1584 230.585 45.4997C230.781 44.0256 230.683 42.5515 230.683 41.1102C230.683 28.335 230.683 15.5597 230.683 2.78448C235.04 2.78448 239.396 2.78448 243.753 2.78448C243.753 24.5352 243.753 46.2858 243.753 68.0365C239.986 68.0365 236.219 68.0365 232.452 68.0365C222.92 54.7044 213.387 41.3723 203.888 28.0402C203.134 27.0574 202.545 25.9437 201.595 25.1248C201.496 39.4396 201.595 53.7544 201.562 68.0693C197.205 68.0693 192.816 68.0693 188.459 68.0693C188.459 46.3186 188.459 24.5352 188.459 2.78448ZM252.761 2.78448C257.314 2.78448 261.868 2.78448 266.454 2.78448C266.454 12.7754 266.421 22.7335 266.486 32.7244C267.24 32.1348 267.829 31.3814 268.419 30.628C276.052 21.3577 283.684 12.0875 291.349 2.81724C296.426 2.81724 301.504 2.81724 306.581 2.81724C298.523 12.4478 290.497 22.1111 282.439 31.7417C291.054 43.8618 299.669 55.9492 308.252 68.0693C302.814 68.0693 297.376 68.0693 291.939 68.0693C285.453 58.9956 279.032 49.8891 272.579 40.8154C270.548 43.2394 268.55 45.6635 266.519 48.0875C266.486 54.7372 266.519 61.4196 266.519 68.0693C261.966 68.0693 257.413 68.0693 252.86 68.0693C252.761 46.3186 252.761 24.5352 252.761 2.78448ZM307.924 2.78448C312.903 2.78448 317.85 2.78448 322.829 2.78448C327.644 11.9565 332.459 21.1612 337.274 30.3332C337.438 30.9555 337.93 30.3987 338.028 30.0711C342.81 20.9646 347.593 11.8909 352.375 2.78448C357.256 2.78448 362.17 2.78448 367.051 2.78448C360.597 14.3477 354.177 25.9437 347.724 37.5069C346.643 39.5706 345.365 41.5688 344.35 43.698C344.219 51.8218 344.35 59.9455 344.284 68.0365C339.731 68.0365 335.178 68.0365 330.625 68.0365C330.592 59.9128 330.69 51.8218 330.559 43.7308C327.546 37.9983 324.27 32.3968 321.191 26.6971C316.769 18.7372 312.346 10.7772 307.924 2.78448ZM371.407 3.60341C373.405 2.68621 376.059 3.86546 376.55 6.06019C377.173 8.15664 375.502 10.4824 373.34 10.6134C371.375 10.8755 369.376 9.33589 369.245 7.33771C369.016 5.79813 369.966 4.19303 371.407 3.60341ZM372.095 4.2913C369.999 4.81542 369.409 7.86182 371.112 9.1721C372.685 10.5807 375.469 9.46692 375.666 7.37047C376.059 5.4378 373.962 3.63616 372.095 4.2913ZM371.506 5.17575C372.423 5.27402 373.635 4.84817 374.323 5.6671C374.748 6.28948 374.257 6.97738 373.799 7.37047C374.093 7.79631 374.355 8.18939 374.65 8.61523C374.388 8.61523 373.897 8.61523 373.668 8.61523C373.34 8.05836 372.947 7.5015 372.357 7.20668C372.324 7.66528 372.292 8.15664 372.259 8.64799C372.062 8.64799 371.702 8.61523 371.506 8.61523C371.506 7.50149 371.506 6.32224 371.506 5.17575ZM372.292 5.79813C372.292 6.06019 372.292 6.5843 372.292 6.84635C372.881 6.74808 373.766 6.91187 373.635 6.02743C373.176 5.92916 372.75 5.86364 372.292 5.79813Z" fill="#AC1991"/>
</svg>
