<?xml version="1.0" encoding="UTF-8"?>
<svg id="Layer_1" data-name="Layer 1" xmlns="http://www.w3.org/2000/svg" xmlns:xlink="http://www.w3.org/1999/xlink" version="1.1" viewBox="0 0 1920 960">
  <defs>
    <style>
      .cls-1 {
        clip-path: url(#clippath);
      }

      .cls-2 {
        fill: none;
      }

      .cls-2, .cls-3, .cls-4 {
        stroke-width: 0px;
      }

      .cls-3 {
        fill: #a24a8f;
      }

      .cls-5 {
        fill: url(#linear-gradient);
        stroke: url(#linear-gradient-2);
        stroke-miterlimit: 10;
      }

      .cls-4 {
        fill: #fff;
      }
    </style>
    <linearGradient id="linear-gradient" x1="959.59" y1="933.21" x2="961.4" y2="27.14" gradientUnits="userSpaceOnUse">
      <stop offset="0" stop-color="#9c3793"/>
      <stop offset=".62" stop-color="#9a3591"/>
      <stop offset=".87" stop-color="#922d8a"/>
      <stop offset="1" stop-color="#8b2683"/>
    </linearGradient>
    <linearGradient id="linear-gradient-2" x1="0" y1="479.5" x2="1921" y2="479.5" gradientUnits="userSpaceOnUse">
      <stop offset="0" stop-color="#9c3793"/>
      <stop offset="1" stop-color="#8b2683"/>
    </linearGradient>
    <clipPath id="clippath">
      <rect class="cls-2" y="1" width="1920" height="957"/>
    </clipPath>
  </defs>
  <rect class="cls-5" x=".5" y="1.5" width="1920" height="956"/>
  <g class="cls-1">
    <path class="cls-3" d="M221.72,130.72C327.7,44.76,463.97-.92,599.96,1.91c64.94,1.51,128.77,14.05,190.36,35.73-28.11,49.16-49.69,101.38-66.72,155.59-78.23-28.41-165.36-31-245.95-8.57-87.57,23.45-167.02,77.06-221.64,149.54-59.86,79.15-90.18,179.66-84.67,278.21,5.24,95.81,42.57,190.25,106.05,262.03,62.14,71.07,148.88,119.96,241.97,136.49,81.26,14.53,166.51,3.62,242.09-29.67,92.38-40.68,168.96-116.51,210.95-208.21,53.19-113.71,53.2-252.8-5.11-364.46-6.62-14.3-16.84-27.5-16.64-43.33.71-67.23,18.38-134.02,50.79-192.94,101.64,101.2,165.59,240.41,174.81,384,11.82,163.06-48.71,329.7-161.36,446.99-78.27,83.1-181.42,141.73-291.94,167.13-113.6,26.35-234.68,17.26-343.62-25.39-121.04-47.39-226.39-135.07-293.18-246.95C12.16,775.48-14.72,625.48,11.11,484.67c25.6-137.92,101.34-265.86,210.61-353.95ZM847.57,26.86c79.89-116.26,202.99-201.27,339.29-234.01,140.96-35.85,295.87-15.17,422.99,55.7,134.69,73.62,237.9,201.93,281.46,349.64,56.06,179.36,18.55,384.56-96.66,531.91-113.76,150.29-303.57,237.15-491.69,228.88-60.17-2.41-119.59-15.18-175.42-36.37,28.27-48.64,52.37-99.95,66.37-154.92,78.42,27.22,164.34,31.31,243.91,9.2,91.32-24.03,174.4-80.45,230.11-156.64,55.87-75.68,86.08-171.09,82.34-265.67-3.7-103.61-46.48-204.82-117.68-279.87-62.09-65.45-145.88-110.17-234.6-125.23-81.77-14.37-168.04-3.15-243.83,31.32-82.8,37.19-151.69,103.34-194.43,183.44-46.8,86.98-61.75,190.1-41.61,286.99,9.1,46.2,27.59,90.09,47.31,132.48,9.03,71.57-13.53,144.36-49.73,205.57-86.9-86.01-146.19-199.05-166.97-319.95-26.29-153.56,9.71-316.07,98.83-442.48Z"/>
  </g>
  <path class="cls-4" d="M862.07,390.54c20.56-8.31,43.92-8.93,64.92-2.01,10.02,3.33,19.34,8.31,27.88,14.62-6.71,6.3-12.55,13.39-17.78,21-10.81-8.14-24.22-12.69-37.82-13.04-14.73-.53-29.63,4.03-41.57,12.69-13.07,9.45-22.57,23.63-26.4,39.21-3.75,15.14-2.44,31.59,4.01,45.77,6.27,14,17.43,25.73,31.11,32.73,11.94,6.13,25.71,8.49,39.04,6.91,16.29-1.93,31.81-10.06,42.7-22.32,13.68-15.14,20.3-36.76,16.56-56.89-.35-2.54-1.31-5.08-.52-7.53,3.31-10.42,9.24-19.95,17.08-27.57,10.98,20.57,14.29,45.25,8.89,68-5.93,25.91-23.27,48.92-46.36,61.79-16.12,9.19-34.94,13.39-53.33,12.08-18.91-1.31-37.3-8.49-52.2-20.3-16.56-13.13-28.76-31.77-33.81-52.34-5.66-22.58-2.7-47.17,8.02-67.83,10.54-20.22,28.41-36.5,49.58-44.98ZM964.28,404.19c17.95-14.27,41.13-21.62,63.87-20.22,23.61,1.14,46.71,11.73,63.09,28.79,17.43,17.85,27.36,42.71,27.1,67.74.17,30.54-15.42,60.65-40.34,78.07-24.83,17.94-58.47,22.41-87.31,12.17-9.24-3.24-17.86-8.05-25.53-14,6.71-6.21,12.9-13.04,17.69-20.92,10.89,7.96,24.05,12.69,37.47,13.04,15.34.61,30.93-4.2,43.22-13.39,12.29-9.1,21.52-22.49,25.44-37.37,4.36-16.28,2.53-34.04-4.97-49.1-6.54-13.13-17.43-24.07-30.5-30.63-12.02-6.13-25.97-8.49-39.39-6.74-14.64,1.84-28.49,8.84-38.95,19.25-11.42,11.29-18.65,26.61-20.13,42.62-.78,7.61,0,15.32,1.05,22.84-2,11.55-8.98,21.79-17.51,29.58-9.41-17.5-13.25-37.9-10.72-57.68,3.22-25.12,16.56-48.66,36.42-64.06Z"/>
</svg>