<svg width="32" height="32" viewBox="0 0 32 32" fill="none" xmlns="http://www.w3.org/2000/svg">
<path fill-rule="evenodd" clip-rule="evenodd" d="M16.0001 2.66669C8.63608 2.66669 2.66675 8.63602 2.66675 16C2.66675 23.3654 8.63608 29.3334 16.0001 29.3334C23.3641 29.3334 29.3334 23.3654 29.3334 16C29.3334 8.63602 23.3641 2.66669 16.0001 2.66669ZM16.0001 4.66669C19.0059 4.66669 21.8885 5.86073 24.014 7.98614C26.1394 10.1116 27.3334 12.9942 27.3334 16C27.3334 19.0058 26.1394 21.8885 24.014 24.0139C21.8885 26.1393 19.0059 27.3334 16.0001 27.3334C12.9943 27.3334 10.1116 26.1393 7.98621 24.0139C5.86079 21.8885 4.66675 19.0058 4.66675 16C4.66675 12.9942 5.86079 10.1116 7.98621 7.98614C10.1116 5.86073 12.9943 4.66669 16.0001 4.66669Z" fill="#131416"/>
<path d="M8.81608 16C8.81612 16.3088 8.93879 16.6049 9.1571 16.8232C9.37541 17.0415 9.67149 17.1641 9.98023 17.1642L14.8459 17.1642L14.8459 22.0298C14.8512 22.3351 14.9762 22.626 15.1939 22.84C15.4116 23.054 15.7047 23.1739 16.01 23.1739C16.3153 23.1739 16.6084 23.054 16.8261 22.84C17.0439 22.626 17.1689 22.3351 17.1742 22.0298L17.1742 17.1642L22.0398 17.1642C22.3451 17.1589 22.636 17.0339 22.85 16.8162C23.064 16.5984 23.1839 16.3053 23.1839 16C23.1839 15.6947 23.064 15.4017 22.85 15.1839C22.636 14.9662 22.3451 14.8412 22.0398 14.8359L17.1742 14.8359V9.97025C17.1689 9.665 17.0439 9.37405 16.8261 9.16006C16.6084 8.94607 16.3153 8.82616 16.01 8.82616C15.7047 8.82616 15.4116 8.94607 15.1939 9.16006C14.9762 9.37405 14.8512 9.665 14.8459 9.97025V14.8359H9.98023C9.67149 14.8359 9.37541 14.9586 9.1571 15.1769C8.93879 15.3952 8.81612 15.6913 8.81608 16Z" fill="#131416"/>
</svg>
